<?xml version="1.0" encoding="utf-8"?>
<!-- Generator: Adobe Illustrator 19.0.0, SVG Export Plug-In . SVG Version: 6.00 Build 0)  -->
<svg version="1.1" id="Layer_1" xmlns="http://www.w3.org/2000/svg" xmlns:xlink="http://www.w3.org/1999/xlink" x="0px" y="0px"
	 viewBox="0 0 1536 1536" style="enable-background:new 0 0 1536 1536;" xml:space="preserve">
<style type="text/css">
	.st0{fill:#FFFFFF;}
	.st1{fill:#E3660D;}
	.st2{fill:#E59661;}
</style>
<rect id="XMLID_3_" x="545.6" y="847.6" class="st0" width="474.1" height="166.7"/>
<path id="XMLID_68_" class="st1" d="M301,1225.5c-68.2,0-130.3,2.6-197.5,2.6c0-243.9,0-485.5,0-732.5c447.9,0,898.3,0,1350.4,0
	c0,242.9,0,481.9,0,728.9c-63.7,0-128.8,0-197.9,0c0-186.5,0.4-367.1,0.4-557c-318.5,0-636.9,0-955.5,0
	C301,855.5,301,1036.1,301,1225.5z"/>
<path id="XMLID_45_" class="st2" d="M997.3,859.3l-15,85.1c-2.1,12-13.4,34.6-41.3,34.6H615.5c-12.2,0-36.4-7.2-41.4-34.6l-15.2-85
	l-82,9.2v51.6h43v34.1h-12.3c0,0-30.9-1.9-30.9,28.9v213.2c0,0,0,28.9,30.9,28.9h41.5c0,0,30.8,1.9,30.8-28.9v-82.2h215.6
	c0,0,18.3,17,39.7,17.9c33.4,1.3,49.3-25,49.3-25l92.2,0.4l1.1,88.9c0,0,4.5,28.9,35.3,28.9h37.1c0,0,30.9,1.9,30.9-28.9V983.3
	c0,0,0-28.9-30.9-28.9H1038l0.4-34.1h42.8v-51.6L997.3,859.3z"/>
<path id="XMLID_10_" class="st2" d="M1023.8,837.4l0.1-63.2h-38.7v-57.5c0-21-17.1-38.1-38.1-38.1H611.9c-21,0-38.1,17.1-38.1,38.1
	v57.4l-37.4-0.1l-0.1,63.7l34.2,0.1c-0.1,3.5,17.6,101.7,17.6,101.7c4.6,25.8,30.1,26.1,31.2,26.1h317.9c26.2,0,31-25.1,31.1-26.1
	c0,0,17.7-99.9,17.7-102.1L1023.8,837.4L1023.8,837.4z M855,805.2c3.9-11.6,14.8-19.9,27.7-19.9c12.9,0,23.8,8.4,27.7,19.9H855z
	 M597.9,716.7c0-7.7,6.3-14,14-14h335.3c7.7,0,14,6.3,14,14v88.5h-24.3c-4.4-25.9-27-45.6-54.1-45.6c-27.1,0-49.7,19.8-54.1,45.6
	H741v-20.7c0,0,0-10.3-10.3-10.3h-70c0,0-10.3,0-10.3,10.3v20.7h-52.5V716.7z M638.4,906.3c-16.9,0-30.5-13.7-30.5-30.5
	c0-16.9,13.7-30.5,30.5-30.5c16.9,0,30.5,13.7,30.5,30.5C668.9,892.6,655.2,906.3,638.4,906.3L638.4,906.3z M916.7,906.3
	c-16.8,0-30.5-13.7-30.5-30.5c0-16.9,13.7-30.5,30.5-30.5c16.9,0,30.5,13.7,30.5,30.5C947.2,892.6,933.6,906.3,916.7,906.3
	L916.7,906.3z M713,942.8h-22.2v-93.8H713V942.8z M751.2,942.8h-22.2v-93.8h22.2V942.8z M789.3,942.8h-22.2v-93.8h22.2V942.8z
	 M827.5,942.8h-22.1v-93.8h22.1V942.8z M865.7,942.8h-22.2v-93.8h22.2V942.8z"/>
<rect id="XMLID_63_" x="27.1" y="310.8" class="st1" width="1484.1" height="143.3"/>
<rect id="XMLID_61_" x="301.1" y="666.5" class="st0" width="955.7" height="212.6"/>
<rect id="XMLID_53_" x="320.6" y="677.7" class="st1" width="917.2" height="36.6"/>
<rect id="XMLID_52_" x="321.2" y="727" class="st1" width="917.2" height="38.2"/>
<rect id="XMLID_51_" x="320.6" y="778" class="st1" width="917.2" height="38.2"/>
<rect id="XMLID_46_" x="320.6" y="829" class="st1" width="917.2" height="38.2"/>
<rect id="XMLID_1_" x="750.3" y="844.1" class="st0" width="52" height="6.4"/>
</svg>
