<svg xmlns="http://www.w3.org/2000/svg" xmlns:xlink="http://www.w3.org/1999/xlink" version="1.1" preserveAspectRatio="none" x="0px" y="0px" viewBox="0 0 100 125"><defs><g id="a"><path fill="#000000" stroke="none" d=" M 94.5 19.3 L 94.25 18.95 88.8 19.3 Q 87.45 19.3 85.65 16.8 L 83.55 16.5 82.45 16.5 Q 76.1 16.5 74.35 22.5 64.7 33.9 61.85 33.9 53.95 38.15 42 38.15 34.1 39.25 27.85 40.65 14.25 36.75 10.45 36.75 L 9.75 36.75 9.75 37.1 Q 19.5 39.6 26.1 42.05 L 26.1 42.4 Q 24.25 45.85 21.4 55.15 17.65 62.4 9.75 65.45 5.5 73.7 5.5 77.55 5.75 80.35 8.35 80.35 L 9.35 80.35 9.35 80 Q 9.35 78.75 8.35 77.55 L 8.35 76.1 Q 8.35 70.6 15.05 67.2 L 15.05 67.55 Q 12.6 72.85 12.6 76.1 12.6 76.55 14.35 77.85 L 15.8 77.85 Q 16.45 77.85 16.45 77.2 L 16.45 76.5 Q 16.45 75.75 15.4 75.75 L 15.4 73.65 Q 15.4 66.1 29.65 62.7 34.1 58.8 37.05 54.1 39.05 52.65 43.1 52.65 L 57.6 56.25 Q 59.2 56.25 60.45 57.25 L 60.85 76.5 Q 62.3 77.4 62.3 78.25 62.3 83.55 66.55 83.55 68.3 83.55 68.3 82.45 L 71.15 82.45 Q 71.7 82.45 72.25 81.45 L 71.85 80.35 69.4 80.35 Q 67.6 79.6 67.6 76.85 L 67.6 76.5 Q 67.6 55.5 74 49.8 75.65 46.85 76.45 38.15 80.15 26.4 88.5 26.4 L 89.9 26.75 91.3 26.75 Q 94.5 25.45 94.5 19.3 Z"/></g></defs><g transform="matrix( 1, 0, 0, 1, 0,0) "><use xlink:href="#a"/></g><text x="0" y="115" fill="#000000" font-size="5px" font-weight="bold" font-family="'Helvetica Neue', Helvetica, Arial-Unicode, Arial, Sans-serif">Created by Zuzana Kadlecová</text><text x="0" y="120" fill="#000000" font-size="5px" font-weight="bold" font-family="'Helvetica Neue', Helvetica, Arial-Unicode, Arial, Sans-serif">from the Noun Project</text></svg>